<svg xmlns="http://www.w3.org/2000/svg" width="193.982" height="35" viewBox="0 0 193.982 35"><defs><style>.a{fill:#fff;}</style></defs><path class="a" d="M240.76,386.749h10.61l7.327,20.868h.088l7.415-20.868h10.61v31.976h-6.976V394.208h-.088l-8.4,24.517h-5.378L247.9,394.208h-.1v24.517H240.76Zm62.6,12.9a10.831,10.831,0,0,0-8.177-3.884c-7.327-.088-11.856,5.027-11.856,11.724s4.543,11.855,11.856,11.724a10.816,10.816,0,0,0,8.177-3.869l-2.579-1.964a6.712,6.712,0,0,1-5.6,2.931c-5.2.1-8.412-3.781-8.412-8.9s3.209-8.983,8.412-8.9a6.712,6.712,0,0,1,5.6,2.931Zm35.787.117h-12.5v6.492h5.73v5.2a13.819,13.819,0,0,1-6.638,1.568c-6.008,0-9.936-4.323-9.936-10.258s3.927-10.258,9.936-10.258a9.8,9.8,0,0,1,7.767,3.033l4.968-5.422c-3.209-2.931-7.679-4.1-12.735-4.1-9.98-.073-17.219,6.507-17.219,16.765s7.327,16.794,17.248,16.794a28.591,28.591,0,0,0,13.409-3.063Zm7.137,18.963h6.77v-9.174c0-4.4.63-7.327,5.789-7.327a10.158,10.158,0,0,1,2.931.454v-6.184a8.478,8.478,0,0,0-2.257-.234,6.712,6.712,0,0,0-6.331,4.074H353.1v-3.561h-6.77Zm33.061-2.755h-.088a7.943,7.943,0,0,1-6.961,3.3c-4.1,0-7.811-2.345-7.811-6.77,0-7.591,9.2-7.723,14.86-7.723a4.03,4.03,0,0,0-4.4-3.927,7.21,7.21,0,0,0-5.51,2.608l-3.62-3.693a14.141,14.141,0,0,1,9.672-3.532c7.9,0,10.024,4.03,10.024,11.343v11.152H379.29Zm-1.671-6.858c-2.081,0-6.682.176-6.682,3.151,0,1.627,1.715,2.389,3.195,2.389,2.667,0,5.158-1.465,5.158-4.1v-1.465Zm28.9-12.339h-5.964v-6.492h-6.77v6.492h-4.4v5.422h4.4v10.434c0,4.777,3.473,6.638,7.987,6.638a14.07,14.07,0,0,0,4.748-.674v-5.657a4.909,4.909,0,0,1-2.755.645c-2.931,0-3.21-1.729-3.21-4.074V402.18h5.964Zm7.034-12.193v34.145h6.77V407.793c0-2.843.542-5.6,4.074-5.6s3.517,3.253,3.517,5.789v10.742h6.77v-12.1c0-5.862-1.26-10.39-8.119-10.39a6.345,6.345,0,0,0-6.14,3.532h-.1V384.58Z" transform="translate(-240.76 -384.58)"/></svg>