<?xml version="1.0" encoding="utf-8"?>
<!-- Generator: Adobe Illustrator 21.0.2, SVG Export Plug-In . SVG Version: 6.00 Build 0)  -->
<svg version="1.1" id="Layer_1" xmlns="http://www.w3.org/2000/svg" xmlns:xlink="http://www.w3.org/1999/xlink" x="0px" y="0px"
	 viewBox="0 0 50 50" style="enable-background:new 0 0 50 50;" xml:space="preserve">
<style type="text/css">
	.st0{fill:#F2F2F2;}
	.st1{fill:#58595B;}
</style>
<circle class="st0" cx="25" cy="25" r="24.5"/>
<g>
	<g>
		<path class="st1" d="M21,38c-2.1,0.4-4.7-0.4-5.2-2.8c-0.6-2.8,2.2-4.1,2.7-4.2c0.1,0,0.2,0.1,0.2,0.1c0,0.2-0.4,0.1-1.3,0.8
			c-0.5,0.4-1.6,1.4-1.3,2.9c0.4,2.1,2.8,2.6,4.2,2.3c4.1-0.8,7.5-5.4,6.7-9.6c-0.1-0.7-0.6-1.9-1-2.6c-1,1.8-2.5,3.5-4.9,4
			c-2.1,0.4-4.1-0.6-4.5-2.5c-0.8-3.7,2.7-5.9,5.5-7.5c-0.2-0.5-0.4-1-0.5-1.5c-0.4-2.1,0.2-5.1,2.7-5.6c1.3-0.3,2.3,0.4,2.5,1.7
			c0.5,2.6-2.5,4.4-4.3,5.5C23,20.4,25,23,26,24.3c0.9-1.7,2-4,2.6-5.3c0.7-1.7,2.2-4.5,4.2-4.9c0.6-0.1,1.1,0.1,1.2,0.7
			c0.1,0.6-0.2,1.1-0.8,1.2c-0.8,0.2-1-0.9-1.5-0.8c-0.5,0.1-1.7,1.6-2.5,3.2c-1,2.1-2,4.2-3,6c0.7,1.1,1.2,2.3,1.5,3.6
			C28.5,32.3,25.8,37,21,38z M21,28.7c2.2-0.4,3.8-2.1,4.8-3.9c-1.2-1.8-2.5-3.4-3.5-5.3c-2.5,1.6-4.7,4-4,7.2
			C18.5,28,19.5,29,21,28.7z M22.4,18.9c1.8-1.1,4.6-2.5,4.1-5.2c-0.2-1-1-1.6-2.1-1.4c-2.1,0.4-2.9,3.1-2.6,4.9
			C22,17.7,22.1,18.3,22.4,18.9z"/>
	</g>
	<g>
		<path class="st1" d="M5.1,26.6h0.5c0,0,0,4.3,4.4,4.3c1.7,0,3-1.1,3-2.6c0-1.1-1.1-2-2.7-2.9l-2.3-1.2c-1.4-0.7-2.6-2.1-2.6-3.9
			c0-2,1.6-3.5,3.9-3.5c1.4,0,2.2,0.5,2.9,1c0.3-0.2,0.6-0.6,0.7-1.1h0.5v5.2h-0.5c-0.2-1.9-0.9-4.2-3.6-4.2c-1.3,0-2.3,0.9-2.3,2.1
			c0,1.2,0.8,1.9,2.9,2.9l2.3,1.2c1.8,0.9,2.5,2.3,2.5,3.6c0,2.6-2.1,4.3-4.5,4.3c-1.8,0-2.9-0.9-3.7-1.1c-0.3,0.2-0.6,0.6-0.7,1.1
			H5.1V26.6z"/>
	</g>
	<g>
		<path class="st1" d="M30.2,24.2c0-4.1,3.3-7.5,7.3-7.5c1.7,0,3.2,0.7,4.4,2c0.3-0.2,0.7-0.8,0.8-1.4h0.5v5.2h-0.5
			c-0.6-3.1-2.5-5-5.1-5c-3.8,0-5.2,3.7-5.2,6.6c0,2.9,1.2,6.5,5.6,6.5c2.1,0,3.9-1.1,3.9-3.2c0-1-0.6-1.5-2.2-1.5v-0.5h6.2v0.5
			c-2,0-2.3,0.4-2.3,2.8v1.8c-2.6,0-3.7,1.2-6.2,1.2C33.5,31.7,30.2,28.3,30.2,24.2z"/>
	</g>
</g>
</svg>
